<mxfile host="65bd71144e">
    <diagram id="2RdNve-qDO50nDFO9Cs2" name="Page-1">
        <mxGraphModel dx="1070" dy="504" grid="1" gridSize="10" guides="1" tooltips="1" connect="1" arrows="1" fold="1" page="1" pageScale="1" pageWidth="850" pageHeight="1100" math="0" shadow="0">
            <root>
                <mxCell id="0"/>
                <mxCell id="1" parent="0"/>
                <mxCell id="HEcKylRqHDlCMjaJb88o-3" value="" style="rounded=1;whiteSpace=wrap;html=1;absoluteArcSize=1;arcSize=130;strokeWidth=3;fillColor=#fff2cc;strokeColor=#d6b656;fontFamily=Times New Roman;fontSize=16;fontColor=#000000;" parent="1" vertex="1">
                    <mxGeometry x="190" y="200" width="300" height="350" as="geometry"/>
                </mxCell>
                <mxCell id="HEcKylRqHDlCMjaJb88o-6" style="edgeStyle=orthogonalEdgeStyle;orthogonalLoop=1;jettySize=auto;html=1;entryX=0;entryY=0.5;entryDx=0;entryDy=0;fontFamily=Times New Roman;fontSize=16;rounded=1;strokeWidth=3;fontColor=#000000;strokeColor=#1A1A1A;" parent="1" source="HEcKylRqHDlCMjaJb88o-4" target="HEcKylRqHDlCMjaJb88o-5" edge="1">
                    <mxGeometry relative="1" as="geometry">
                        <Array as="points">
                            <mxPoint x="320" y="120"/>
                        </Array>
                    </mxGeometry>
                </mxCell>
                <mxCell id="HEcKylRqHDlCMjaJb88o-8" value="" style="edgeStyle=orthogonalEdgeStyle;rounded=1;orthogonalLoop=1;jettySize=auto;html=1;fontFamily=Times New Roman;fontSize=16;strokeWidth=3;fontColor=#000000;strokeColor=#333333;" parent="1" source="HEcKylRqHDlCMjaJb88o-4" target="HEcKylRqHDlCMjaJb88o-7" edge="1">
                    <mxGeometry relative="1" as="geometry"/>
                </mxCell>
                <mxCell id="HEcKylRqHDlCMjaJb88o-4" value="Read yaml" style="rounded=1;whiteSpace=wrap;html=1;absoluteArcSize=1;arcSize=14;strokeWidth=3;fillColor=#f8cecc;strokeColor=#b85450;fontFamily=Times New Roman;fontSize=16;fontColor=#000000;" parent="1" vertex="1">
                    <mxGeometry x="275" y="220" width="90" height="30" as="geometry"/>
                </mxCell>
                <mxCell id="HEcKylRqHDlCMjaJb88o-5" value="&lt;ol&gt;&lt;li&gt;&lt;span style=&quot;background-color: rgb(153 , 255 , 153)&quot;&gt;Method&lt;/span&gt;&lt;/li&gt;&lt;li&gt;&lt;span style=&quot;background-color: rgb(153 , 255 , 153)&quot;&gt;Data&lt;/span&gt;&lt;/li&gt;&lt;li&gt;&lt;span style=&quot;background-color: rgb(153 , 255 , 153)&quot;&gt;Transformation&lt;/span&gt;&lt;/li&gt;&lt;li&gt;hyperparameters&lt;/li&gt;&lt;li&gt;output reqd??&amp;nbsp;&lt;/li&gt;&lt;/ol&gt;" style="rounded=1;whiteSpace=wrap;html=1;absoluteArcSize=1;arcSize=42;strokeWidth=3;fontFamily=Times New Roman;fontSize=16;fillColor=#dae8fc;strokeColor=#6c8ebf;align=left;fontColor=#000000;" parent="1" vertex="1">
                    <mxGeometry x="610" y="40" width="170" height="130" as="geometry"/>
                </mxCell>
                <mxCell id="HEcKylRqHDlCMjaJb88o-10" value="" style="edgeStyle=orthogonalEdgeStyle;rounded=1;orthogonalLoop=1;jettySize=auto;html=1;fontFamily=Times New Roman;fontSize=16;strokeWidth=3;fontColor=#000000;" parent="1" source="HEcKylRqHDlCMjaJb88o-7" target="HEcKylRqHDlCMjaJb88o-9" edge="1">
                    <mxGeometry relative="1" as="geometry"/>
                </mxCell>
                <mxCell id="HEcKylRqHDlCMjaJb88o-12" value="" style="edgeStyle=orthogonalEdgeStyle;rounded=1;orthogonalLoop=1;jettySize=auto;html=1;fontFamily=Times New Roman;fontSize=16;strokeWidth=3;fontColor=#000000;strokeColor=#333333;" parent="1" source="HEcKylRqHDlCMjaJb88o-7" target="HEcKylRqHDlCMjaJb88o-11" edge="1">
                    <mxGeometry relative="1" as="geometry"/>
                </mxCell>
                <mxCell id="HEcKylRqHDlCMjaJb88o-7" value="Read Data" style="rounded=1;whiteSpace=wrap;html=1;absoluteArcSize=1;arcSize=14;strokeWidth=3;fillColor=#f8cecc;strokeColor=#b85450;fontFamily=Times New Roman;fontSize=16;fontColor=#000000;" parent="1" vertex="1">
                    <mxGeometry x="275" y="290" width="90" height="30" as="geometry"/>
                </mxCell>
                <mxCell id="HEcKylRqHDlCMjaJb88o-9" value="trans..." style="rhombus;whiteSpace=wrap;html=1;rounded=1;fontFamily=Times New Roman;fontSize=16;strokeColor=#b85450;strokeWidth=3;fillColor=#f8cecc;arcSize=14;fontColor=#000000;" parent="1" vertex="1">
                    <mxGeometry x="400" y="265" width="80" height="80" as="geometry"/>
                </mxCell>
                <mxCell id="HEcKylRqHDlCMjaJb88o-14" value="" style="edgeStyle=orthogonalEdgeStyle;rounded=1;orthogonalLoop=1;jettySize=auto;html=1;fontFamily=Times New Roman;fontSize=16;strokeWidth=3;fontColor=#000000;strokeColor=#333333;" parent="1" source="HEcKylRqHDlCMjaJb88o-11" target="HEcKylRqHDlCMjaJb88o-13" edge="1">
                    <mxGeometry relative="1" as="geometry"/>
                </mxCell>
                <mxCell id="HEcKylRqHDlCMjaJb88o-21" value="" style="edgeStyle=orthogonalEdgeStyle;rounded=1;orthogonalLoop=1;jettySize=auto;html=1;fontFamily=Times New Roman;fontSize=16;strokeWidth=3;fontColor=#000000;strokeColor=#1A1A1A;" parent="1" source="HEcKylRqHDlCMjaJb88o-11" target="HEcKylRqHDlCMjaJb88o-20" edge="1">
                    <mxGeometry relative="1" as="geometry"/>
                </mxCell>
                <mxCell id="HEcKylRqHDlCMjaJb88o-11" value="ML fit&amp;nbsp;" style="rounded=1;whiteSpace=wrap;html=1;absoluteArcSize=1;arcSize=14;strokeWidth=3;fillColor=#f8cecc;strokeColor=#b85450;fontFamily=Times New Roman;fontSize=16;fontColor=#000000;" parent="1" vertex="1">
                    <mxGeometry x="275" y="360" width="90" height="30" as="geometry"/>
                </mxCell>
                <mxCell id="HEcKylRqHDlCMjaJb88o-16" value="" style="edgeStyle=orthogonalEdgeStyle;rounded=1;orthogonalLoop=1;jettySize=auto;html=1;fontFamily=Times New Roman;fontSize=16;strokeWidth=3;fontColor=#000000;strokeColor=#333333;" parent="1" source="HEcKylRqHDlCMjaJb88o-13" target="HEcKylRqHDlCMjaJb88o-15" edge="1">
                    <mxGeometry relative="1" as="geometry"/>
                </mxCell>
                <mxCell id="HEcKylRqHDlCMjaJb88o-13" value="LC" style="rounded=1;whiteSpace=wrap;html=1;absoluteArcSize=1;arcSize=14;strokeWidth=3;fillColor=#f8cecc;strokeColor=#b85450;fontFamily=Times New Roman;fontSize=16;fontColor=#000000;" parent="1" vertex="1">
                    <mxGeometry x="275" y="430" width="90" height="30" as="geometry"/>
                </mxCell>
                <mxCell id="HEcKylRqHDlCMjaJb88o-15" value=".predict" style="rounded=1;whiteSpace=wrap;html=1;absoluteArcSize=1;arcSize=14;strokeWidth=3;fillColor=#d5e8d4;strokeColor=#82b366;fontFamily=Times New Roman;fontSize=16;fontColor=#000000;" parent="1" vertex="1">
                    <mxGeometry x="275" y="500" width="90" height="30" as="geometry"/>
                </mxCell>
                <mxCell id="HEcKylRqHDlCMjaJb88o-20" value="&lt;ol&gt;&lt;li&gt;&lt;span style=&quot;background-color: rgb(153 , 255 , 153)&quot;&gt;Lasso&lt;/span&gt;&lt;/li&gt;&lt;li&gt;&lt;span style=&quot;background-color: rgb(153 , 255 , 153)&quot;&gt;Ridge&lt;/span&gt;&lt;/li&gt;&lt;li&gt;&lt;span style=&quot;background-color: rgb(153 , 255 , 153)&quot;&gt;Decision Tree&lt;/span&gt;&lt;/li&gt;&lt;li&gt;Random Forest&lt;/li&gt;&lt;li&gt;Gradient boost&lt;/li&gt;&lt;li&gt;XGB&lt;/li&gt;&lt;li&gt;Hist Boost&lt;/li&gt;&lt;li&gt;GPR&lt;/li&gt;&lt;/ol&gt;" style="whiteSpace=wrap;html=1;rounded=1;fontFamily=Times New Roman;fontSize=16;strokeColor=#6c8ebf;strokeWidth=3;fillColor=#dae8fc;arcSize=14;align=left;fontColor=#000000;" parent="1" vertex="1">
                    <mxGeometry x="630" y="268.43" width="250" height="213.13" as="geometry"/>
                </mxCell>
            </root>
        </mxGraphModel>
    </diagram>
</mxfile>